<?xml version="1.0" standalone="no"?>
<!DOCTYPE svg PUBLIC "-//W3C//DTD SVG 20010904//EN"
 "http://www.w3.org/TR/2001/REC-SVG-20010904/DTD/svg10.dtd">
<svg version="1.0" xmlns="http://www.w3.org/2000/svg"
 width="400" height="200" viewBox="0 0 2000.000000 2000.000000"
 preserveAspectRatio="xMidYMid meet">

<g transform="translate(0.000000,2000.000000) scale(0.100000,-0.100000)"
fill="fef5dc" stroke="none">
<path d="M12331 18278 c-5 -13 -31 -70 -59 -128 -27 -58 -73 -154 -102 -215
-28 -60 -62 -131 -74 -157 l-23 -48 75 0 c67 0 73 -2 67 -17 -21 -53 -21 -53
44 -53 l61 0 -6 -32 c-99 -544 -417 -1160 -978 -1898 -108 -143 -280 -361
-322 -410 -12 -14 -86 -101 -164 -195 -78 -93 -167 -197 -198 -230 -32 -33
-77 -83 -102 -110 -25 -28 -90 -100 -146 -160 -56 -61 -226 -247 -379 -415
-153 -168 -303 -332 -334 -365 -31 -33 -81 -87 -111 -120 -73 -80 -469 -503
-510 -545 -8 -8 -46 -49 -84 -90 -39 -41 -102 -109 -141 -150 -38 -41 -131
-140 -205 -220 -74 -80 -142 -152 -150 -160 -9 -8 -65 -69 -124 -135 -60 -66
-133 -145 -161 -175 -273 -293 -754 -868 -1004 -1200 -524 -697 -813 -1237
-936 -1745 -36 -152 -40 -217 -16 -295 11 -36 31 -105 46 -155 14 -49 29 -97
32 -105 3 -8 14 27 24 79 11 52 21 96 23 98 1 2 11 -27 21 -64 42 -162 49
-182 57 -177 4 3 8 17 8 32 0 37 51 243 90 364 115 362 343 788 669 1253 250
357 522 697 970 1215 289 333 397 452 751 826 102 107 157 166 400 424 86 91
232 246 325 345 197 208 207 219 431 465 93 102 189 208 215 235 25 28 99 109
164 180 65 72 143 157 174 190 471 502 971 1133 1279 1611 190 295 358 613
447 844 124 323 176 566 179 832 l1 158 137 0 137 0 -28 49 c-16 27 -58 93
-93 148 -34 55 -67 107 -73 116 -5 9 -46 73 -90 141 l-79 125 -13 -31 c-15
-36 -18 -34 -58 34 -35 60 -51 69 -64 36z"/>
<path d="M13374 17236 c-43 -23 -140 -74 -214 -113 -74 -39 -164 -87 -200
-106 l-65 -36 -3 -5650 -2 -5651 447 0 446 0 -6 3458 c-4 1901 -7 4470 -7
5708 l0 2252 -137 80 c-76 43 -147 84 -159 90 -17 9 -34 3 -100 -32z"/>
<path d="M11995 15262 l-260 -117 -3 -4733 -2 -4732 430 0 430 0 0 4755 0
4755 -52 33 c-178 114 -251 157 -266 156 -9 0 -134 -53 -277 -117z"/>
<path d="M11104 13649 c-10 -4 -100 -38 -199 -74 -99 -37 -210 -78 -247 -92
l-68 -26 0 -3889 0 -3888 420 0 420 0 0 3889 0 3888 -153 100 c-117 76 -158
98 -173 92z"/>
<path d="M9920 12061 c-30 -10 -142 -44 -247 -77 l-193 -59 0 -3122 0 -3123
410 0 410 0 0 3098 -1 3097 -141 99 c-77 55 -150 101 -162 102 -11 2 -46 -5
-76 -15z"/>
<path d="M8660 10604 c-124 -29 -233 -54 -242 -54 -17 0 -18 -123 -18 -2435
l0 -2435 400 0 400 0 -2 2381 -3 2382 -140 108 c-77 59 -147 107 -155 107 -8
0 -116 -24 -240 -54z"/>
<path d="M7670 9355 c-74 -14 -177 -32 -227 -41 l-93 -16 0 -1681 0 -1680 97
-129 96 -128 52 0 c38 0 113 21 286 79 l234 79 2 1659 3 1658 -135 113 c-88
72 -143 112 -158 111 -12 0 -83 -11 -157 -24z"/>
<path d="M6650 8229 c-130 -7 -275 -31 -312 -50 -17 -9 -18 -63 -18 -1012 l0
-1002 106 -120 c59 -66 112 -119 118 -119 6 1 103 32 216 69 113 37 230 75
260 84 l55 17 2 954 2 955 -134 115 c-74 63 -140 115 -147 116 -7 1 -74 -2
-148 -7z"/>
<path d="M15558 7245 c-70 -37 -88 -65 -190 -295 -11 -25 -28 -63 -38 -85 -33
-74 -33 -81 -1 -104 16 -12 32 -21 36 -21 3 0 27 -9 53 -21 26 -11 65 -29 87
-39 22 -9 58 -25 80 -34 22 -10 54 -24 70 -31 156 -71 237 -105 252 -105 8 0
24 21 35 48 11 26 25 49 29 50 5 2 9 14 9 26 0 18 -12 27 -55 45 -30 13 -58
27 -61 33 -7 11 4 41 54 148 30 64 35 86 35 150 1 64 -3 82 -26 121 -56 95
-135 139 -249 139 -57 -1 -83 -6 -120 -25z m200 -168 c40 -42 38 -75 -8 -182
-24 -53 -49 -99 -57 -102 -18 -7 -155 50 -167 70 -6 9 -2 29 11 58 11 24 28
62 38 84 37 83 51 95 109 95 42 0 57 -5 74 -23z"/>
<path d="M4579 7241 c-33 -7 -52 -14 -144 -56 -143 -65 -183 -83 -202 -89 -37
-12 -34 -60 10 -133 22 -39 30 -40 80 -13 66 36 79 30 119 -57 71 -153 79
-174 73 -191 -3 -9 -32 -30 -65 -46 -58 -28 -70 -39 -51 -50 5 -3 12 -18 16
-33 3 -16 15 -42 26 -60 l20 -32 37 15 c55 23 101 43 262 117 100 45 169 109
205 188 25 56 27 69 22 148 -7 129 -60 212 -168 266 -54 28 -173 41 -240 26z
m203 -210 c68 -73 51 -179 -38 -241 -54 -36 -55 -35 -148 173 -14 32 -26 66
-26 76 0 27 44 41 115 37 55 -4 63 -8 97 -45z"/>
<path d="M15209 6620 c-9 -5 -45 -57 -80 -116 -35 -58 -71 -118 -81 -132 -52
-85 -68 -126 -68 -177 0 -66 10 -92 51 -140 76 -86 223 -99 299 -27 19 18 82
107 93 132 4 8 16 29 27 45 11 17 26 42 35 57 21 37 52 45 78 19 l21 -21 -22
-42 c-12 -24 -58 -101 -101 -173 -82 -135 -86 -154 -44 -178 82 -47 82 -48
101 -36 11 7 34 39 53 71 39 69 44 78 82 136 70 109 97 168 97 216 0 151 -177
264 -309 196 -49 -24 -77 -58 -147 -175 -69 -117 -85 -132 -119 -117 -15 7
-25 20 -25 33 0 18 89 178 156 279 12 19 28 48 33 63 9 23 8 29 -7 34 -9 4
-36 20 -58 35 -47 32 -44 31 -65 18z"/>
<path d="M4892 6517 c-74 -31 -151 -102 -187 -173 -26 -53 -29 -69 -29 -149 0
-85 2 -94 38 -160 21 -38 43 -76 49 -84 12 -14 16 -21 67 -110 21 -38 43 -64
57 -67 16 -4 54 13 135 62 115 69 165 101 205 129 l22 15 -29 48 c-16 26 -50
82 -75 125 -26 42 -55 82 -64 86 -21 12 -117 -41 -126 -70 -4 -12 4 -37 24
-69 36 -58 37 -63 15 -84 -33 -34 -59 -20 -105 57 -38 63 -44 79 -44 128 1
107 80 175 193 167 83 -6 96 -18 207 -206 59 -99 85 -130 104 -125 11 3 26 11
32 19 6 8 17 14 23 14 14 0 56 42 56 55 0 7 -29 57 -105 183 -78 129 -113 166
-190 203 -78 38 -191 40 -273 6z"/>
<path d="M5390 5876 c-85 -24 -174 -97 -219 -181 -50 -94 -42 -240 18 -330 69
-104 174 -225 194 -225 11 0 42 17 68 37 39 29 48 41 43 57 -4 11 -46 71 -94
132 -90 115 -112 164 -90 204 6 11 15 20 19 20 5 0 43 -43 85 -95 42 -52 83
-95 90 -95 20 0 116 78 116 94 0 7 -31 52 -70 99 -92 113 -91 153 3 113 35
-15 53 -33 146 -151 80 -101 90 -106 138 -69 43 33 73 61 73 70 0 5 -95 130
-110 144 -3 3 -27 31 -54 63 -27 32 -65 69 -85 81 -68 43 -182 56 -271 32z"/>
<path d="M14515 5602 c-81 -29 -147 -87 -187 -162 -20 -38 -23 -60 -23 -145 0
-149 19 -178 275 -411 36 -32 67 -62 68 -66 9 -20 45 -4 84 38 24 25 45 50 47
56 2 5 -18 32 -44 58 -34 34 -45 53 -41 66 8 23 187 214 201 214 6 0 29 -19
53 -41 32 -31 48 -40 65 -35 20 5 97 89 97 106 0 8 -157 155 -249 234 -90 76
-122 89 -231 92 -52 2 -104 0 -115 -4z m149 -163 c52 -14 85 -39 85 -64 1 -35
-170 -215 -204 -215 -25 0 -53 37 -76 102 -24 70 28 160 103 178 47 11 48 11
92 -1z"/>
<path d="M5920 5341 c-19 -4 -58 -22 -87 -40 -53 -33 -313 -296 -313 -317 0
-12 94 -104 107 -104 5 0 73 64 151 143 127 128 147 145 192 156 114 29 200
-50 184 -171 -6 -50 -22 -74 -89 -143 -141 -145 -195 -204 -195 -214 0 -15 89
-111 103 -111 11 0 83 72 216 214 110 118 131 162 131 285 0 105 -17 155 -76
215 -61 63 -118 88 -208 92 -44 1 -97 -1 -116 -5z"/>
<path d="M14015 5103 c-10 -3 -31 -12 -45 -21 -20 -13 -231 -185 -337 -276
-13 -11 -19 -25 -15 -35 4 -13 91 -121 112 -141 3 -3 26 -30 50 -60 154 -191
254 -300 274 -300 11 0 37 16 56 35 19 19 38 35 42 35 4 0 8 8 8 19 0 16 -37
65 -144 191 -164 194 -167 199 -158 217 10 18 108 103 174 149 42 30 70 26 94
-12 15 -22 15 -26 -2 -52 -11 -16 -47 -53 -82 -81 -66 -55 -74 -77 -35 -96 11
-6 27 -16 34 -21 8 -6 34 -22 59 -35 25 -13 52 -29 60 -35 8 -6 45 -19 81 -29
63 -16 69 -16 125 0 73 21 153 80 154 114 0 13 -18 44 -41 72 -45 54 -49 54
-119 -3 -35 -29 -74 -37 -85 -17 -4 6 3 42 15 80 22 68 22 71 6 133 -18 65
-53 109 -120 150 -29 18 -124 30 -161 19z"/>
<path d="M6490 4811 c-73 -26 -105 -47 -150 -98 -64 -73 -90 -140 -90 -234 0
-88 17 -143 63 -202 44 -56 248 -211 260 -196 43 52 77 106 77 119 0 10 -40
48 -95 89 -121 93 -135 112 -135 189 0 50 5 65 30 100 53 74 143 101 213 66
18 -9 69 -46 115 -81 54 -41 89 -62 101 -58 19 6 94 112 87 124 -15 23 -225
166 -269 182 -62 23 -144 23 -207 0z"/>
<path d="M13267 4571 c-204 -100 -268 -341 -139 -529 48 -70 127 -126 209
-146 79 -20 111 -20 181 0 81 24 147 70 189 133 85 128 86 281 2 410 -94 144
-295 204 -442 132z m248 -170 c48 -32 94 -111 95 -162 0 -42 -31 -117 -58
-142 -10 -9 -34 -23 -55 -32 -108 -45 -226 16 -261 135 -13 44 -13 56 -1 98
38 128 169 176 280 103z"/>
<path d="M7078 4550 c-9 -6 -31 -34 -48 -63 -17 -28 -55 -90 -85 -137 -30 -47
-75 -119 -100 -160 -25 -41 -64 -102 -85 -135 -21 -33 -39 -63 -39 -66 -2 -11
108 -79 127 -79 18 0 45 36 152 210 29 47 67 108 85 135 100 154 125 197 125
214 0 11 -22 33 -55 55 -30 20 -56 36 -57 36 -2 0 -11 -5 -20 -10z"/>
<path d="M7375 4302 c-100 -38 -162 -93 -209 -182 -96 -182 -146 -288 -146
-307 0 -17 13 -28 55 -48 30 -15 63 -25 72 -23 9 2 27 23 40 48 41 77 34 77
180 3 148 -73 146 -71 100 -155 -11 -20 -17 -43 -14 -52 9 -23 106 -69 131
-62 15 4 44 53 111 188 l90 183 0 90 c0 78 -4 98 -27 145 -28 58 -90 122 -148
155 -26 14 -58 20 -125 22 -49 1 -99 -1 -110 -5z m175 -179 c49 -29 65 -62 65
-135 0 -56 -4 -71 -21 -89 l-22 -21 -123 61 c-68 34 -128 66 -132 70 -14 14
22 79 55 103 55 39 123 43 178 11z"/>
<path d="M12800 4284 c-14 -8 -65 -33 -115 -55 -292 -134 -275 -121 -242 -191
37 -79 46 -84 103 -59 77 34 84 31 125 -57 20 -42 62 -130 93 -195 31 -65 56
-121 56 -126 0 -4 10 -17 23 -28 l22 -21 63 29 c37 18 62 36 62 45 0 9 -18 53
-39 97 -137 286 -161 339 -161 355 0 11 21 27 60 45 33 16 60 33 60 37 0 26
-65 141 -78 139 -4 0 -18 -7 -32 -15z"/>
<path d="M12010 3971 c-104 -23 -188 -97 -242 -215 -28 -61 -25 -208 6 -277
33 -75 93 -139 168 -180 60 -32 68 -34 163 -34 89 0 106 3 151 27 74 39 126
93 163 172 31 66 33 75 29 160 -3 75 -9 101 -32 150 -60 122 -165 194 -295
201 -42 2 -92 1 -111 -4z m188 -190 c58 -41 82 -91 82 -169 0 -61 -4 -74 -30
-110 -34 -47 -50 -57 -110 -71 -47 -11 -120 7 -155 37 -51 43 -69 83 -69 153
-1 59 3 73 29 111 42 60 85 80 160 76 44 -3 70 -10 93 -27z"/>
<path d="M8353 3928 c-11 -12 -29 -67 -58 -173 -8 -27 -21 -75 -29 -105 -9
-30 -25 -89 -36 -130 -11 -41 -27 -95 -34 -120 -8 -25 -17 -62 -19 -82 l-5
-36 66 -21 c44 -13 70 -17 78 -10 13 11 29 49 38 92 7 30 33 35 83 16 36 -15
136 -39 187 -46 84 -12 199 55 244 141 42 80 37 211 -10 278 -57 80 -77 90
-328 158 -69 19 -129 37 -156 47 -6 2 -16 -2 -21 -9z m222 -222 c130 -33 164
-66 152 -144 -7 -41 -48 -82 -83 -82 -28 0 -169 36 -202 53 -31 15 -31 26 0
130 23 78 12 74 133 43z"/>
<path d="M11191 3750 c-18 -10 -45 -29 -60 -42 -40 -36 -56 -39 -98 -17 -31
17 -52 20 -123 17 -91 -4 -115 -14 -178 -72 -59 -54 -82 -113 -82 -210 0 -47
6 -118 14 -158 8 -40 20 -107 26 -148 21 -134 22 -140 31 -146 12 -7 125 16
144 30 16 12 16 11 -30 262 -8 45 -15 113 -15 152 0 66 2 72 31 96 22 19 42
26 73 26 79 0 108 -43 126 -188 6 -47 13 -89 16 -93 3 -5 9 -47 15 -95 14
-123 18 -128 90 -121 83 7 92 17 84 91 -3 34 -12 95 -20 136 -28 152 -36 236
-25 265 17 45 49 64 107 65 74 0 94 -27 116 -156 9 -54 24 -136 32 -180 8 -45
15 -95 15 -110 0 -52 11 -58 86 -50 38 4 72 12 76 19 12 18 9 66 -7 132 -8 33
-14 74 -15 91 0 53 -41 247 -58 279 -27 49 -74 95 -124 121 -62 31 -194 34
-247 4z"/>
<path d="M9057 3753 c-8 -12 -26 -115 -42 -238 -7 -55 -17 -131 -23 -170 -26
-165 -35 -244 -29 -257 5 -15 130 -34 147 -23 8 5 28 115 55 300 8 61 18 129
21 152 7 50 22 56 102 42 66 -12 174 -29 183 -29 4 0 12 -13 19 -29 9 -22 9
-35 1 -50 -21 -38 -45 -43 -128 -26 -43 9 -88 13 -101 10 -22 -5 -23 -9 -16
-63 4 -31 13 -77 20 -102 8 -25 14 -54 14 -65 0 -11 9 -37 20 -58 48 -89 114
-135 213 -147 54 -6 60 -5 74 16 19 29 29 129 14 138 -6 4 -33 10 -60 13 -34
4 -57 13 -72 29 -28 30 -16 47 45 64 89 25 150 115 150 220 -1 135 -83 211
-248 229 -48 6 -90 12 -94 15 -5 3 -53 10 -108 16 -54 6 -111 13 -125 16 -15
3 -29 2 -32 -3z"/>
<path d="M10036 3649 c-181 -59 -293 -263 -241 -435 30 -100 73 -160 151 -214
22 -16 53 -32 67 -36 15 -3 27 -10 27 -15 0 -5 40 -9 89 -9 80 0 95 3 150 31
79 40 145 106 179 178 24 49 27 68 27 156 -1 124 -21 173 -109 261 -51 51 -72
64 -130 82 -84 27 -132 27 -210 1z m183 -168 c21 -11 51 -37 67 -58 26 -35 29
-45 29 -118 0 -68 -4 -85 -24 -113 -36 -52 -92 -82 -150 -82 -66 0 -108 22
-150 77 -121 158 54 382 228 294z"/>
</g>
</svg>
