<?xml version="1.0" standalone="no"?>
<!DOCTYPE svg PUBLIC "-//W3C//DTD SVG 20010904//EN"
 "http://www.w3.org/TR/2001/REC-SVG-20010904/DTD/svg10.dtd">
<svg version="1.0" xmlns="http://www.w3.org/2000/svg"
 width="20" height="20" viewBox="0 0 2000.000000 2000.000000"
 preserveAspectRatio="xMidYMid meet">

<g transform="translate(0.000000,2000.000000) scale(0.100000,-0.100000)"
fill="#000000" stroke="none">
<path d="M16205 11550 c4 -6 11 -8 16 -5 14 9 11 15 -7 15 -8 0 -12 -5 -9 -10z"/>
<path d="M16195 11522 c36 -4 38 -6 15 -12 l-25 -8 28 -1 c18 -1 27 4 27 14 0
11 -11 15 -42 13 l-43 -1 40 -5z"/>
<path d="M16133 11483 c3 -5 25 -10 49 -12 69 -4 57 -11 -23 -12 -63 -2 -68
-3 -34 -9 31 -5 34 -8 15 -10 -19 -2 -16 -5 15 -10 35 -6 30 -8 -35 -10 l-75
-2 54 -9 c78 -13 75 -19 -10 -20 -63 -2 -68 -3 -34 -9 31 -5 34 -8 15 -10 -19
-2 -16 -5 15 -10 34 -6 29 -7 -34 -9 -80 -1 -92 -8 -23 -12 70 -5 59 -19 -15
-20 -60 -2 -63 -3 -28 -9 31 -5 34 -8 15 -10 -19 -2 -16 -5 15 -10 35 -6 31
-8 -35 -10 -46 -2 -61 -5 -37 -7 51 -6 37 -23 -21 -24 l-47 -2 40 -7 c31 -5
34 -8 15 -10 -19 -2 -16 -5 15 -10 35 -6 30 -8 -35 -10 -65 -2 -70 -4 -35 -10
40 -7 38 -9 -23 -15 -49 -5 -52 -15 -6 -16 34 -1 36 -2 14 -9 -23 -6 -21 -8
15 -12 29 -3 20 -5 -35 -8 -66 -2 -70 -4 -35 -10 40 -7 38 -9 -23 -15 -46 -5
-53 -15 -11 -16 28 0 30 -2 14 -9 -16 -6 -12 -9 20 -12 28 -3 18 -6 -35 -8
-66 -2 -70 -4 -35 -10 22 -4 31 -8 20 -10 -11 -1 -24 -2 -29 -1 -5 1 -6 -5 -3
-14 4 -10 0 -16 -11 -16 -9 -1 1 -5 23 -9 35 -6 31 -8 -35 -10 -53 -2 -63 -5
-35 -8 32 -3 36 -6 20 -12 -16 -7 -14 -9 14 -9 42 -1 35 -12 -11 -15 -59 -5
-64 -9 -23 -16 35 -6 30 -8 -35 -10 -65 -2 -70 -4 -35 -10 22 -4 31 -8 20 -10
-13 -2 -8 -5 15 -10 33 -7 31 -7 -17 -9 -61 -1 -71 -18 -15 -24 22 -2 8 -5
-38 -7 -66 -2 -70 -4 -35 -10 22 -4 31 -8 20 -10 -13 -2 -8 -5 15 -10 33 -7
31 -7 -17 -9 -61 -1 -71 -18 -15 -24 22 -2 8 -5 -38 -7 -66 -2 -70 -4 -35 -10
37 -7 38 -7 10 -10 -25 -3 -23 -4 15 -10 43 -7 41 -7 -23 -8 -74 -2 -85 -16
-15 -21 69 -4 57 -11 -23 -12 -63 -2 -68 -3 -34 -9 31 -5 34 -8 15 -10 -19 -2
-16 -5 15 -10 35 -6 32 -7 -28 -9 -74 -1 -85 -15 -15 -20 69 -4 57 -11 -23
-12 -63 -2 -68 -3 -34 -9 37 -7 38 -7 10 -10 -25 -3 -23 -4 15 -10 43 -7 42
-7 -25 -10 l-70 -2 55 -12 55 -11 -75 -6 c-51 -4 -62 -6 -35 -8 35 -3 37 -4
15 -11 -23 -6 -21 -8 15 -12 27 -3 17 -5 -34 -6 -80 -2 -92 -9 -23 -13 70 -5
59 -19 -15 -20 -60 -2 -63 -3 -28 -9 31 -5 34 -8 15 -10 -19 -2 -16 -5 15 -10
35 -6 31 -8 -35 -10 -46 -2 -61 -5 -37 -7 51 -6 37 -23 -21 -24 l-47 -2 40 -7
c31 -5 34 -8 15 -10 -19 -2 -16 -5 15 -10 35 -6 30 -8 -35 -10 -65 -2 -70 -4
-35 -10 22 -4 32 -8 23 -10 -10 -1 -22 -4 -28 -5 -5 -1 -22 -4 -37 -5 -24 -2
-22 -4 12 -10 31 -5 34 -8 15 -10 -19 -2 -16 -5 15 -10 35 -6 30 -8 -35 -10
-65 -2 -70 -4 -35 -10 40 -7 38 -9 -23 -15 -46 -5 -53 -15 -11 -16 28 0 30 -2
14 -9 -16 -6 -12 -9 20 -12 30 -4 23 -5 -30 -8 -59 -2 -65 -4 -35 -10 22 -5
28 -8 15 -10 -11 -1 -24 -2 -29 -1 -5 1 -6 -5 -3 -14 4 -8 1 -16 -6 -16 -7 -1
4 -5 23 -9 l35 -7 -31 -2 c-20 -1 -31 -6 -31 -16 0 -8 4 -15 9 -15 5 0 6 -6 1
-12 -4 -7 -9 -26 -11 -43 -9 -99 -24 -217 -41 -335 -44 -290 -51 -328 -77
-425 -14 -55 -30 -121 -35 -147 -7 -46 -44 -164 -97 -313 -13 -38 -35 -99 -47
-135 -55 -155 -163 -392 -273 -595 -132 -245 -383 -603 -585 -835 -111 -126
-375 -392 -506 -510 -46 -41 -92 -82 -100 -90 -121 -112 -454 -350 -651 -465
-36 -21 -78 -47 -93 -58 -37 -24 -381 -197 -395 -197 -5 0 -41 -16 -80 -34
-38 -19 -82 -38 -98 -42 -16 -4 -54 -18 -84 -31 -30 -13 -77 -31 -105 -38 -27
-8 -97 -29 -155 -48 -292 -97 -714 -177 -1012 -193 -65 -3 -118 -10 -118 -14
0 -4 -8 -6 -19 -3 -10 3 -22 0 -25 -6 -4 -6 -28 -12 -54 -12 l-47 -2 40 -7
c37 -7 38 -7 10 -10 -25 -3 -23 -4 15 -10 42 -6 40 -7 -30 -10 -66 -2 -70 -4
-35 -10 22 -4 32 -8 23 -10 -10 -1 -22 -4 -28 -5 -5 -1 -22 -4 -37 -5 -24 -2
-22 -4 12 -10 31 -5 34 -8 15 -10 -19 -2 -16 -5 15 -10 35 -6 30 -8 -35 -10
-65 -2 -70 -4 -35 -10 22 -4 32 -8 23 -10 -10 -1 -22 -4 -28 -5 -5 -1 -22 -4
-37 -5 -24 -2 -22 -4 12 -10 31 -5 34 -8 15 -10 -19 -2 -16 -5 15 -10 35 -6
30 -8 -35 -10 -65 -2 -70 -4 -35 -10 31 -6 24 -16 -7 -11 -13 2 -9 -17 5 -22
6 -3 1 -6 -13 -8 -18 -1 -14 -4 15 -9 35 -6 30 -8 -35 -10 -65 -2 -70 -4 -35
-10 22 -4 31 -8 20 -10 -13 -2 -8 -5 15 -10 35 -7 35 -7 5 -9 -16 -1 -41 -5
-55 -8 -23 -7 -21 -8 15 -14 33 -5 27 -7 -35 -9 -65 -2 -70 -4 -35 -10 22 -4
31 -8 20 -10 -13 -2 -8 -5 15 -10 l35 -7 -45 -3 c-25 -1 -56 -1 -70 0 -42 3
-15 -11 37 -20 48 -8 48 -8 -27 -10 -65 -2 -70 -4 -35 -10 22 -4 31 -8 20 -10
-11 -2 -2 -6 20 -10 l40 -7 -50 -3 c-27 -1 -61 -1 -75 0 -42 3 -15 -11 37 -20
48 -8 48 -8 -27 -10 -65 -2 -70 -4 -35 -10 22 -4 31 -8 20 -10 -13 -2 -8 -5
15 -10 29 -6 22 -8 -34 -9 -78 -1 -81 -8 -9 -21 48 -8 48 -8 -27 -10 -65 -2
-70 -4 -35 -10 22 -4 31 -8 20 -10 -13 -2 -8 -5 15 -10 29 -6 22 -8 -34 -9
-78 -1 -81 -8 -9 -21 48 -8 48 -8 -27 -10 -65 -2 -70 -4 -35 -10 22 -4 31 -8
20 -10 -13 -2 -8 -5 15 -10 29 -6 24 -8 -35 -10 l-70 -2 55 -12 55 -11 -75 -6
c-48 -3 -61 -6 -35 -8 32 -2 36 -4 20 -11 -16 -6 -12 -9 20 -12 28 -3 17 -5
-35 -7 -72 -3 -73 -3 -31 -12 24 -5 48 -6 52 -3 5 3 9 0 9 -5 0 -7 -29 -12
-72 -12 -63 -2 -67 -3 -33 -9 37 -7 38 -7 10 -10 -25 -3 -23 -4 15 -10 43 -7
42 -7 -25 -10 -39 -2 -56 -5 -37 -7 47 -6 29 -23 -26 -24 l-47 -2 40 -7 c37
-7 38 -7 10 -10 -25 -3 -23 -4 15 -10 43 -7 42 -7 -25 -10 -59 -2 -65 -4 -35
-10 19 -4 27 -9 18 -10 -10 -1 -22 -4 -28 -5 -5 -1 -22 -4 -37 -5 -24 -2 -22
-4 12 -10 37 -7 38 -7 10 -10 -25 -3 -23 -4 15 -10 42 -6 40 -7 -30 -10 -66
-2 -70 -4 -35 -10 22 -4 32 -8 23 -10 -10 -1 -22 -4 -28 -5 -5 -1 -22 -4 -37
-5 -24 -2 -22 -4 12 -10 31 -5 34 -8 15 -10 -19 -2 -16 -5 15 -10 35 -6 30 -8
-35 -10 -65 -2 -70 -4 -35 -10 22 -4 31 -8 20 -10 -11 -1 -24 -2 -29 -1 -5 1
-4 -5 4 -13 11 -14 9 -16 -11 -17 -15 -1 -8 -5 16 -9 35 -6 31 -8 -35 -10 -53
-2 -63 -5 -35 -8 32 -3 36 -6 20 -12 -17 -7 -15 -9 12 -9 17 -1 35 -6 39 -13
5 -7 3 -8 -5 -4 -7 5 -33 4 -59 0 l-47 -8 40 -7 c34 -5 29 -7 -35 -9 -65 -2
-70 -4 -35 -10 22 -4 31 -8 20 -10 -11 -2 -2 -6 20 -10 l40 -7 -50 -3 c-27 -1
-61 -1 -75 0 -42 3 -15 -11 37 -20 48 -8 48 -8 -27 -10 -65 -2 -70 -4 -35 -10
22 -4 31 -8 20 -10 -11 -2 -2 -6 20 -10 34 -6 29 -7 -34 -9 -83 -1 -88 -8 -14
-21 48 -8 48 -8 -27 -10 -65 -2 -70 -4 -35 -10 22 -4 31 -8 20 -10 -13 -2 -8
-5 15 -10 l35 -7 -39 -2 c-22 0 -37 -3 -35 -5 10 -10 343 -47 549 -61 487 -33
1149 -7 1525 60 44 8 114 19 155 25 203 27 736 170 970 260 334 128 438 173
660 285 376 188 710 405 1075 694 395 313 847 775 1153 1176 50 66 100 131
110 145 45 58 237 351 289 439 31 53 69 116 84 141 33 53 249 484 249 496 0 4
16 42 35 84 108 235 253 676 321 975 46 203 74 340 83 410 6 44 22 166 36 270
14 105 30 267 35 360 12 208 12 711 1 935 -9 167 -40 451 -50 460 -3 3 -6 19
-6 35 0 30 -1 30 -58 33 -33 2 -56 -1 -54 -5z"/>
<path d="M15535 10880 c3 -5 8 -10 11 -10 2 0 4 5 4 10 0 6 -5 10 -11 10 -5 0
-7 -4 -4 -10z"/>
<path d="M15465 10810 c3 -5 8 -10 11 -10 2 0 4 5 4 10 0 6 -5 10 -11 10 -5 0
-7 -4 -4 -10z"/>
</g>
</svg>
