<?xml version="1.0" standalone="no"?>
<!DOCTYPE svg PUBLIC "-//W3C//DTD SVG 20010904//EN"
 "http://www.w3.org/TR/2001/REC-SVG-20010904/DTD/svg10.dtd">
<svg version="1.0" xmlns="http://www.w3.org/2000/svg"
 width="20" height="20" viewBox="0 0 2000.000000 2000.000000"
 preserveAspectRatio="xMidYMid meet">

<g transform="translate(0.000000,2000.000000) scale(0.100000,-0.100000)"
fill="#000000" stroke="none">
<path d="M7690 18304 c-354 -76 -621 -323 -722 -669 l-23 -80 -3 -1897 c-1
-1044 -1 -1898 1 -1898 2 0 30 9 63 20 183 64 378 94 601 95 l173 0 2 1778 3
1779 28 24 28 24 1335 0 1334 0 0 -1004 c0 -1040 4 -1150 41 -1274 91 -298
347 -548 659 -643 l75 -24 1093 -3 1092 -3 0 -2680 0 -2681 -29 -29 -29 -29
-1710 0 -1709 0 88 -327 c49 -181 101 -372 115 -426 l27 -98 1646 4 1646 3 80
21 c176 47 309 122 436 244 126 123 191 231 252 419 l21 65 3 2755 3 2755
-1897 1897 -1898 1898 -1380 -1 c-1142 0 -1391 -3 -1445 -15z"/>
<path d="M7405 13545 c-389 -54 -726 -225 -1023 -518 -331 -326 -505 -700
-542 -1162 -25 -327 32 -643 169 -931 94 -196 201 -343 377 -516 358 -351 788
-528 1284 -528 507 0 928 173 1290 531 335 331 507 702 540 1165 39 554 -141
1041 -532 1435 -301 302 -636 471 -1042 525 -131 17 -395 17 -521 -1z"/>
<path d="M9285 10503 c-123 -213 -351 -452 -566 -593 -252 -165 -539 -263
-852 -290 -117 -10 -193 -6 -502 29 -44 5 -82 8 -84 5 -2 -2 115 -459 261
-1016 146 -557 379 -1448 519 -1980 139 -533 255 -968 258 -968 3 0 40 57 81
128 40 70 131 224 200 342 70 118 207 352 305 520 98 168 184 313 190 322 11
16 24 11 146 -60 74 -43 265 -154 424 -247 390 -226 503 -292 646 -376 66 -39
123 -69 125 -66 3 3 -6 47 -20 98 -26 100 -69 264 -136 524 -23 88 -50 192
-60 230 -10 39 -37 142 -60 230 -23 88 -72 277 -110 420 -37 143 -112 429
-165 635 -54 206 -151 578 -215 825 -65 248 -168 646 -230 885 -62 239 -116
439 -120 443 -4 5 -20 -13 -35 -40z"/>
<path d="M6530 10035 c0 -4 -15 -66 -34 -138 -19 -73 -48 -184 -65 -247 -16
-63 -46 -178 -66 -255 -20 -77 -56 -214 -80 -305 -23 -91 -61 -237 -84 -325
-23 -88 -58 -221 -77 -295 -34 -128 -50 -190 -108 -410 -13 -52 -41 -157 -60
-232 -20 -76 -52 -200 -72 -275 -19 -76 -46 -178 -59 -228 -13 -49 -38 -144
-55 -210 -17 -66 -43 -162 -56 -214 -14 -51 -23 -95 -21 -98 3 -2 233 134 511
302 279 168 511 305 515 305 5 0 73 -111 152 -247 79 -137 171 -295 204 -353
34 -58 104 -178 155 -267 52 -90 97 -163 101 -163 5 0 290 1096 289 1116 0 6
-54 218 -120 470 -66 253 -134 513 -151 579 -17 66 -42 158 -54 205 -13 47
-76 288 -140 535 l-117 450 -122 63 c-125 64 -251 142 -321 197 -47 38 -65 49
-65 40z"/>
<path d="M5693 4048 c-5 -7 -65 -202 -132 -433 -68 -231 -151 -514 -185 -630
-42 -142 -60 -214 -53 -222 7 -9 45 -13 128 -13 135 0 128 -5 159 104 l17 61
191 3 191 2 22 -72 c11 -40 26 -79 31 -85 16 -20 247 -18 254 1 5 13 -20 105
-126 466 -16 52 -40 133 -54 180 -13 47 -59 202 -100 345 -42 143 -80 270 -86
283 -9 21 -15 22 -129 22 -83 0 -121 -4 -128 -12z m187 -688 c27 -96 50 -178
50 -182 0 -5 -49 -8 -110 -8 -75 0 -110 4 -110 11 0 15 85 304 100 344 7 17
14 26 16 20 2 -5 26 -89 54 -185z"/>
<path d="M6563 3987 l-73 -73 0 -508 0 -508 72 -74 71 -74 271 0 270 0 68 69
68 70 0 304 c0 269 -2 306 -16 311 -9 3 -96 6 -194 6 -149 0 -181 -3 -194 -16
-13 -12 -16 -38 -16 -120 0 -138 3 -144 85 -144 l65 0 0 -88 c0 -119 -3 -122
-142 -122 -89 0 -107 3 -121 18 -15 17 -17 56 -17 361 l0 342 25 24 c22 23 32
25 113 25 107 0 142 -18 142 -75 0 -51 14 -56 146 -53 l119 3 5 115 c4 79 2
123 -7 141 -6 14 -41 51 -76 82 l-65 57 -263 0 -263 0 -73 -73z"/>
<path d="M7555 4048 c-3 -7 -4 -301 -3 -653 l3 -640 357 -3 358 -2 5 22 c3 13
5 73 3 133 l-3 110 -228 3 -228 2 3 123 3 122 175 5 175 5 0 130 0 130 -178 3
-178 2 3 123 3 122 225 5 225 5 3 119 c2 78 -1 123 -9 132 -16 20 -707 21
-714 2z"/>
<path d="M8495 4048 c-3 -7 -4 -301 -3 -653 l3 -640 130 0 130 0 5 315 c3 173
7 313 8 310 2 -3 53 -144 115 -315 l113 -310 169 0 170 0 0 650 0 650 -130 0
-130 0 -3 -360 c-1 -197 -6 -363 -10 -367 -4 -4 -58 145 -121 332 -63 186
-120 352 -127 369 l-13 31 -151 0 c-111 0 -152 -3 -155 -12z"/>
<path d="M9690 4053 c-23 -8 -120 -104 -136 -135 -12 -22 -14 -114 -14 -524
l0 -498 73 -73 73 -73 269 0 269 0 73 74 74 73 -3 119 -3 119 -130 0 -130 0
-3 -40 c-6 -68 -19 -75 -144 -75 -159 0 -147 -31 -148 377 l0 331 26 31 c25
31 27 31 120 31 89 0 96 -2 119 -26 14 -15 25 -41 27 -62 l3 -37 119 -3 c78
-2 123 1 132 9 11 9 14 40 14 127 l0 116 -73 73 -73 73 -260 -1 c-142 0 -266
-3 -274 -6z"/>
<path d="M10577 4053 c-4 -3 -7 -298 -7 -655 l0 -648 129 0 c108 0 130 3 135
16 3 9 6 296 6 639 0 343 -3 630 -6 639 -5 13 -26 16 -128 16 -68 0 -126 -3
-129 -7z"/>
<path d="M11373 4048 c-11 -14 -34 -88 -164 -533 -44 -154 -112 -385 -150
-514 -38 -130 -66 -238 -61 -243 5 -5 65 -7 133 -6 l124 3 26 80 25 80 191 3
190 2 18 -62 c32 -111 27 -108 166 -108 92 0 121 3 125 14 3 7 -36 152 -86
322 -50 170 -108 370 -130 444 -122 416 -151 513 -156 521 -9 14 -240 11 -251
-3z m184 -680 c28 -100 49 -186 47 -190 -7 -10 -212 -10 -217 0 -5 9 104 372
112 372 3 0 29 -82 58 -182z"/>
<path d="M12874 3988 l-74 -71 0 -254 0 -254 68 -70 68 -69 187 0 c231 0 227
2 227 -123 0 -74 -3 -86 -23 -105 -21 -20 -34 -22 -140 -22 l-116 0 -3 53 -3
52 -132 3 -133 3 0 -118 0 -118 72 -72 71 -73 266 0 266 0 72 72 73 72 0 251
0 251 -73 72 -72 72 -186 0 c-227 0 -219 -4 -219 123 0 81 2 87 26 106 23 18
41 21 140 21 l113 0 3 -57 3 -58 133 -3 132 -3 0 123 0 123 -72 72 -72 73
-264 0 -264 0 -74 -72z"/>
<path d="M13865 4048 c-3 -7 -4 -301 -3 -653 l3 -640 130 0 130 0 3 237 2 237
191 3 191 3 69 72 69 73 0 267 0 267 -73 73 -73 73 -318 0 c-244 0 -318 -3
-321 -12z m489 -279 c25 -20 26 -24 26 -120 0 -135 -4 -139 -145 -139 l-105 0
0 133 c0 74 3 137 7 140 3 4 48 7 98 7 78 0 96 -3 119 -21z"/>
</g>
</svg>
