<?xml version="1.0" standalone="no"?>
<!DOCTYPE svg PUBLIC "-//W3C//DTD SVG 20010904//EN"
 "http://www.w3.org/TR/2001/REC-SVG-20010904/DTD/svg10.dtd">
<svg version="1.0" xmlns="http://www.w3.org/2000/svg"
 width="100" height="100" viewBox="0 0 2000.000000 2000.000000"
 preserveAspectRatio="xMidYMid meet">

<g transform="translate(0.000000,2000.000000) scale(0.100000,-0.100000)"
fill="#a00263" stroke="none">
<path d="M7690 18304 c-190 -40 -332 -116 -468 -248 -128 -123 -204 -250 -254
-421 l-23 -80 -3 -1897 c-1 -1044 -1 -1898 1 -1898 2 0 30 9 63 20 184 64 379
94 601 94 l173 0 2 1779 3 1779 28 24 28 24 1335 0 1334 0 0 -1012 c0 -610 4
-1049 10 -1103 42 -373 315 -692 690 -807 l75 -23 1093 -3 1092 -3 0 -2680 0
-2681 -29 -29 -29 -29 -1710 0 -1709 0 88 -327 c49 -181 101 -372 115 -426
l27 -98 1646 4 1646 3 80 21 c371 100 647 392 705 747 6 39 10 1045 10 2776
l0 2715 -1898 1898 -1897 1897 -1380 -1 c-1142 0 -1391 -3 -1445 -15z"/>
<path d="M7405 13545 c-397 -55 -750 -237 -1047 -541 -318 -325 -481 -685
-518 -1140 -26 -322 32 -642 169 -930 94 -196 201 -343 377 -516 360 -353 787
-528 1289 -528 503 0 923 174 1285 531 333 330 507 704 540 1164 39 556 -141
1042 -532 1436 -301 302 -636 471 -1042 525 -131 17 -395 17 -521 -1z"/>
<path d="M9290 10512 c-105 -197 -354 -459 -571 -602 -251 -165 -541 -263
-854 -290 -121 -11 -157 -9 -454 26 -69 7 -127 12 -129 9 -3 -3 97 -395 222
-872 698 -2669 810 -3093 815 -3093 3 0 46 69 95 153 49 83 140 238 201 342
62 105 183 312 270 460 87 149 172 293 189 322 l30 52 56 -31 c30 -17 91 -52
135 -78 44 -26 211 -123 370 -215 160 -93 397 -231 528 -308 132 -76 241 -136
243 -134 3 2 -16 85 -42 183 -26 99 -66 256 -91 349 -24 94 -60 231 -79 305
-20 74 -48 185 -64 245 -66 253 -103 395 -125 480 -25 93 -35 134 -155 595
-101 388 -264 1014 -300 1150 -17 63 -82 312 -145 554 -63 241 -116 440 -117
442 -2 1 -15 -18 -28 -44z"/>
<path d="M6523 10002 c-6 -20 -42 -161 -82 -312 -87 -336 -141 -543 -187 -720
-20 -74 -55 -209 -79 -300 -89 -344 -147 -567 -165 -635 -10 -38 -35 -133 -55
-210 -20 -77 -60 -232 -90 -345 -30 -113 -70 -268 -90 -345 -20 -77 -48 -182
-61 -234 -14 -51 -23 -95 -21 -98 3 -2 233 134 511 302 279 168 511 305 515
305 5 0 73 -111 152 -247 78 -137 170 -295 204 -353 34 -58 103 -178 155 -267
52 -90 97 -163 100 -163 5 0 135 492 263 995 l30 120 -97 375 c-54 206 -108
413 -121 460 -13 47 -100 382 -195 746 l-173 660 -111 57 c-118 60 -265 150
-331 202 -61 48 -62 48 -72 7z"/>
<path d="M5693 4048 c-5 -7 -65 -202 -132 -433 -68 -231 -151 -514 -185 -630
-42 -142 -60 -214 -53 -222 7 -9 45 -13 128 -13 135 0 128 -5 159 104 l17 61
191 3 191 2 22 -72 c11 -40 26 -79 31 -85 16 -20 247 -18 254 1 5 13 -24 119
-128 471 -16 55 -40 136 -53 180 -83 290 -176 603 -185 623 -9 21 -15 22 -129
22 -83 0 -121 -4 -128 -12z m187 -689 c27 -96 50 -178 50 -182 0 -4 -49 -7
-110 -7 -75 0 -110 4 -110 11 0 15 85 304 100 344 7 17 14 26 16 20 2 -5 26
-89 54 -186z"/>
<path d="M6563 3987 l-73 -73 0 -508 0 -508 72 -74 71 -74 269 0 269 0 50 47
c96 90 90 63 89 400 0 223 -4 299 -13 305 -6 4 -94 8 -194 8 -152 0 -184 -3
-197 -16 -13 -12 -16 -38 -16 -120 0 -138 3 -144 85 -144 l65 0 0 -88 c0 -119
-3 -122 -142 -122 -89 0 -107 3 -121 18 -15 17 -17 56 -17 361 l0 342 25 24
c22 23 32 25 113 25 107 0 142 -18 142 -75 0 -51 14 -56 146 -53 l119 3 5 115
c4 79 2 123 -7 141 -6 14 -41 51 -76 82 l-65 57 -263 0 -263 0 -73 -73z"/>
<path d="M7555 4048 c-3 -7 -4 -301 -3 -653 l3 -640 357 -3 358 -2 5 22 c3 13
5 73 3 133 l-3 110 -228 3 -228 2 3 123 3 122 175 5 175 5 0 130 0 130 -178 3
-178 2 3 123 3 122 225 5 225 5 3 119 c2 78 -1 123 -9 132 -16 20 -707 21
-714 2z"/>
<path d="M8495 4048 c-3 -7 -4 -301 -3 -653 l3 -640 130 0 130 0 5 315 c3 175
9 306 14 295 4 -11 56 -153 114 -315 l107 -295 170 0 170 0 0 650 0 650 -130
0 -130 0 -3 -360 c-1 -197 -6 -363 -10 -367 -4 -4 -58 145 -120 330 -63 185
-120 352 -127 370 l-14 32 -151 0 c-111 0 -152 -3 -155 -12z"/>
<path d="M9690 4053 c-23 -8 -120 -104 -136 -135 -12 -22 -14 -114 -14 -524
l0 -498 73 -73 73 -73 269 0 269 0 73 74 74 73 -3 119 -3 119 -130 0 -130 0
-6 -42 c-9 -69 -17 -73 -141 -73 -159 0 -147 -31 -148 377 l0 331 26 31 c25
31 27 31 120 31 89 0 96 -2 119 -26 14 -15 25 -41 27 -62 l3 -37 110 -3 c167
-4 155 -14 155 130 l0 122 -73 73 -73 73 -260 -1 c-142 0 -266 -3 -274 -6z"/>
<path d="M10577 4053 c-4 -3 -7 -298 -7 -655 l0 -648 129 0 c108 0 130 3 135
16 3 9 6 296 6 639 0 343 -3 630 -6 639 -5 13 -26 16 -128 16 -68 0 -126 -3
-129 -7z"/>
<path d="M11372 4048 c-5 -7 -46 -137 -91 -288 -44 -151 -128 -437 -186 -634
-58 -198 -101 -364 -97 -368 5 -5 65 -7 133 -6 l124 3 26 80 25 80 191 3 190
2 18 -62 c32 -111 27 -108 166 -108 92 0 121 3 125 14 3 7 -29 130 -71 272
-42 143 -100 342 -130 444 -140 476 -165 563 -171 571 -9 14 -240 11 -252 -3z
m186 -687 c28 -96 49 -178 46 -183 -3 -4 -52 -8 -110 -8 -89 0 -104 2 -104 16
0 31 103 365 110 357 4 -4 30 -86 58 -182z"/>
<path d="M12874 3988 l-74 -71 0 -254 0 -254 68 -70 68 -69 187 0 c231 0 227
2 227 -123 0 -74 -3 -86 -23 -105 -21 -20 -34 -22 -140 -22 l-116 0 -3 53 -3
52 -132 3 -133 3 0 -118 0 -118 72 -72 71 -73 266 0 266 0 72 72 73 72 0 251
0 251 -73 72 -72 72 -186 0 c-227 0 -219 -4 -219 123 0 81 2 87 26 106 23 18
41 21 140 21 l113 0 3 -57 3 -58 133 -3 132 -3 0 123 0 123 -72 72 -72 73
-264 0 -264 0 -74 -72z"/>
<path d="M13865 4048 c-3 -7 -4 -301 -3 -653 l3 -640 130 0 130 0 3 237 2 237
191 3 191 3 69 72 69 73 0 267 0 267 -73 73 -73 73 -318 0 c-244 0 -318 -3
-321 -12z m489 -279 c25 -20 26 -24 26 -120 0 -135 -4 -139 -145 -139 l-105 0
0 133 c0 74 3 137 7 140 3 4 48 7 98 7 78 0 96 -3 119 -21z"/>
</g>
</svg>
